<svg xmlns="http://www.w3.org/2000/svg" xmlns:xlink="http://www.w3.org/1999/xlink" width="1000" zoomAndPan="magnify" viewBox="0 0 750 525.000007" height="700" preserveAspectRatio="xMidYMid meet" version="1.0"><defs><g/><clipPath id="583b7405ff"><path d="M 0.714844 0 L 749.285156 0 L 749.285156 524 L 0.714844 524 Z M 0.714844 0 " clip-rule="nonzero"/></clipPath></defs><g clip-path="url(#583b7405ff)"><path fill="#ffffff" d="M 0.714844 0 L 749.285156 0 L 749.285156 524 L 0.714844 524 Z M 0.714844 0 " fill-opacity="1" fill-rule="nonzero"/><path fill="#ffffff" d="M 0.714844 0 L 749.285156 0 L 749.285156 524 L 0.714844 524 Z M 0.714844 0 " fill-opacity="1" fill-rule="nonzero"/></g><g fill="#ffffff" fill-opacity="1"><g transform="translate(325.544323, 476.138369)"><g><path d="M 24.320312 -212.792969 C 24.320312 -88.15625 121.597656 9.121094 249.273438 9.121094 C 364.789062 9.121094 419.507812 -57.757812 419.507812 -57.757812 L 346.550781 -173.277344 C 346.550781 -173.277344 310.070312 -139.835938 267.511719 -139.835938 C 224.953125 -139.835938 194.554688 -170.234375 194.554688 -212.792969 C 194.554688 -255.351562 224.953125 -285.753906 267.511719 -285.753906 C 310.070312 -285.753906 346.550781 -252.3125 346.550781 -252.3125 L 419.507812 -367.832031 C 419.507812 -367.832031 364.789062 -434.707031 249.273438 -434.707031 C 121.597656 -434.707031 24.320312 -337.429688 24.320312 -212.792969 Z M 24.320312 -212.792969 "/></g></g></g><g fill="#ffffff" fill-opacity="1"><g transform="translate(0.712923, 476.138369)"><g><path d="M 337.429688 -425.589844 L 130.714844 -425.589844 L 6.078125 0 L 182.394531 0 L 194.554688 -60.796875 L 273.59375 -60.796875 L 285.753906 0 L 462.066406 0 C 462.066406 0 338.039062 -423.15625 337.429688 -425.589844 Z M 212.792969 -158.074219 L 234.074219 -267.511719 L 255.351562 -158.074219 Z M 212.792969 -158.074219 "/></g></g></g></svg>